<svg width="25" height="16" viewBox="0 0 25 16" fill="none" xmlns="http://www.w3.org/2000/svg">
<path d="M0.00789915 0.974945L1.85807 15.2659C1.9116 15.6793 2.22858 15.9861 2.60226 15.9861H7.69635C7.97791 15.9861 8.23587 15.8103 8.36481 15.5304L10.8186 10.8707C10.9856 10.5083 11.47 10.5972 11.5246 11.0002L12.1937 15.2714C12.2494 15.6824 12.5653 15.9861 12.9371 15.9861H18.0238C18.3115 15.9861 18.574 15.8026 18.6999 15.5134L24.9232 1.2225C25.1664 0.664118 24.8026 0.0138855 24.2471 0.0138855H19.7671C19.4536 0.0138855 19.1731 0.231253 19.063 0.559359L17.7446 4.48984C17.6524 4.76462 17.8341 5.05774 18.0966 5.05774H19.9324C20.2536 5.05774 20.4269 5.47896 20.2179 5.75161L16.0466 10.5267C15.7946 10.8553 15.3165 10.5951 15.3925 10.1707L16.1483 6.6113C16.1948 6.35121 16.0169 6.10855 15.7796 6.10855H13.5528C13.2995 6.10855 13.1186 5.83414 13.1937 5.56364L14.4318 1.10369C14.582 0.562708 14.2203 0.0138855 13.7137 0.0138855H9.98396C9.67443 0.0138855 9.39651 0.225943 9.28372 0.548199L7.9796 4.2741C7.88311 4.54976 8.06494 4.84758 8.32972 4.84758H9.98392C10.3027 4.84758 10.4768 5.26322 10.2728 5.53699L6.1465 10.4071C5.89369 10.7462 5.40395 10.4761 5.49093 10.0454L6.35937 6.41129C6.41247 6.14842 6.23369 5.89839 5.99264 5.89839H3.97097C3.71604 5.89839 3.53502 5.62077 3.61303 5.34944L4.83141 1.11177C4.98743 0.569126 4.62539 0.0138855 4.11554 0.0138855H0.752087C0.293935 0.0138855 -0.0577285 0.468031 0.00789915 0.974945Z" fill="#141526"/>
</svg>
