<svg width="386" height="206" viewBox="0 0 386 206" fill="none" xmlns="http://www.w3.org/2000/svg">
<g opacity="0.04">
<rect x="2.82764" y="3.71332" width="39.5897" height="39.5897" fill="#FFCA28"/>
<path d="M26.8643 36.6402L29.7791 34.7115C30.0075 35.4291 31.4541 37.1336 33.2813 37.1336C35.1085 37.1336 35.9569 36.1356 35.9569 35.474C35.9569 33.671 34.0911 33.0353 33.1949 32.7299C33.0488 32.6802 32.9285 32.6392 32.8463 32.6033C32.8041 32.5849 32.7403 32.5606 32.6584 32.5293C31.6617 32.1485 27.9846 30.7436 27.9846 26.6713C27.9846 22.1859 32.3133 21.6701 33.2922 21.6701C33.9326 21.6701 37.0119 21.7486 38.5454 24.6305L35.7176 26.6041C35.0977 25.3482 34.0676 24.9333 33.4336 24.9333C31.8674 24.9333 31.5411 26.0815 31.5411 26.6041C31.5411 28.0706 33.2427 28.7279 34.6795 29.2829C35.0554 29.4281 35.4132 29.5664 35.7176 29.7102C37.2838 30.4503 39.5896 31.6614 39.5896 35.474C39.5896 37.3836 37.9879 40.4752 33.9556 40.4752C28.5392 40.4752 27.1036 37.2233 26.8643 36.6402Z" fill="#3E3E3E"/>
<path d="M12.7251 37.0232L15.7632 35.0955C16.0012 35.8128 16.9262 37.1353 18.2684 37.1353C19.6106 37.1353 20.2976 35.7567 20.2976 35.0955V22.0943H24.0339V35.0955C24.0944 36.8887 23.0998 40.4752 18.7105 40.4752C14.6749 40.4752 12.9972 38.0768 12.7251 37.0232Z" fill="#3E3E3E"/>
</g>
<g opacity="0.2">
<path d="M65.04 17.7897C65.04 12.8625 65.04 10.3989 65.9989 8.51696C66.8424 6.86156 68.1883 5.51568 69.8437 4.67221C71.7256 3.71332 74.1892 3.71332 79.1164 3.71332H90.5534C95.4806 3.71332 97.9442 3.71332 99.8261 4.67221C101.482 5.51568 102.827 6.86156 103.671 8.51696C104.63 10.3989 104.63 12.8625 104.63 17.7897V29.2267C104.63 34.1539 104.63 36.6175 103.671 38.4994C102.827 40.1548 101.482 41.5007 99.8261 42.3442C97.9442 43.3031 95.4806 43.3031 90.5534 43.3031H79.1164C74.1892 43.3031 71.7256 43.3031 69.8437 42.3442C68.1883 41.5007 66.8424 40.1548 65.9989 38.4994C65.04 36.6175 65.04 34.1539 65.04 29.2267V17.7897Z" fill="white"/>
<path d="M84.8379 18.4901L79.9445 9.85424C80.1069 9.68882 80.2939 9.58031 80.4808 9.50739C79.0378 9.98231 78.3756 11.6028 78.3756 11.6028L69.4361 27.3749C69.3103 27.8694 69.2754 28.3159 69.2911 28.709H79.0482L84.8379 18.4901Z" fill="#34A853"/>
<path d="M84.8379 18.4901L90.6275 28.709H100.385C100.4 28.3159 100.365 27.8694 100.24 27.3749L91.3001 11.6028C91.3001 11.6028 90.6363 9.98231 89.195 9.50739C89.3802 9.58031 89.5688 9.68882 89.7313 9.85424L84.8379 18.4901Z" fill="#FBBC05"/>
<path d="M84.8378 18.4904L89.7312 9.85459C89.5687 9.68917 89.38 9.58067 89.1948 9.50774C88.9817 9.43837 88.7528 9.39212 88.5048 9.37967H88.2462H81.4293H81.1707C80.9244 9.39034 80.6938 9.43659 80.4807 9.50774C80.2955 9.58067 80.1068 9.68917 79.9443 9.85459L84.8378 18.4904Z" fill="#188038"/>
<path d="M79.0501 28.709L74.2126 37.247C74.2126 37.247 74.0519 37.1687 73.8335 37.0068C74.5201 37.5351 75.1874 37.6472 75.1874 37.6472H94.1863C95.2345 37.6472 95.4529 37.247 95.4529 37.247C95.4564 37.2452 95.4582 37.2434 95.4617 37.2416L90.6276 28.709H79.0501Z" fill="#4285F4"/>
<path d="M79.0501 28.709H69.293C69.3419 29.8687 69.845 30.5464 69.845 30.5464L70.2119 31.1832C70.2381 31.2206 70.2538 31.2419 70.2538 31.2419L71.0522 32.6436L72.8447 35.7635C72.8971 35.8898 72.9582 36.0054 73.0229 36.1157C73.0473 36.153 73.07 36.194 73.0962 36.2295C73.1032 36.2402 73.1102 36.2509 73.1172 36.2616C73.3391 36.5746 73.5872 36.8165 73.8352 37.0068C74.0536 37.1705 74.2143 37.247 74.2143 37.247L79.0501 28.709Z" fill="#1967D2"/>
<path d="M90.6274 28.709H100.385C100.336 29.8687 99.8325 30.5464 99.8325 30.5464L99.4656 31.1832C99.4394 31.2206 99.4237 31.2419 99.4237 31.2419L98.6253 32.6436L96.8329 35.7635C96.7805 35.8898 96.7193 36.0054 96.6547 36.1157C96.6302 36.153 96.6075 36.194 96.5813 36.2295C96.5743 36.2402 96.5673 36.2509 96.5603 36.2616C96.3385 36.5746 96.0904 36.8165 95.8423 37.0068C95.6239 37.1705 95.4632 37.247 95.4632 37.247L90.6274 28.709Z" fill="#EA4335"/>
</g>
<path d="M127.252 17.7897C127.252 12.8625 127.252 10.3989 128.211 8.51696C129.055 6.86156 130.401 5.51568 132.056 4.67221C133.938 3.71332 136.402 3.71332 141.329 3.71332H152.766C157.693 3.71332 160.157 3.71332 162.039 4.67221C163.694 5.51568 165.04 6.86156 165.883 8.51696C166.842 10.3989 166.842 12.8625 166.842 17.7897V29.2267C166.842 34.1539 166.842 36.6175 165.883 38.4994C165.04 40.1548 163.694 41.5007 162.039 42.3442C160.157 43.3031 157.693 43.3031 152.766 43.3031H141.329C136.402 43.3031 133.938 43.3031 132.056 42.3442C130.401 41.5007 129.055 40.1548 128.211 38.4994C127.252 36.6175 127.252 34.1539 127.252 29.2267V17.7897Z" fill="white"/>
<path d="M155.604 12.9362L147.138 19.5426L138.479 12.9362V12.938L138.49 12.9469V22.1977L147.041 28.947L155.604 22.4584V12.9362Z" fill="#EA4335"/>
<path d="M157.826 11.3292L155.603 12.9362V22.4583L162.598 17.0875V13.8521C162.598 13.8521 161.749 9.2312 157.826 11.3292Z" fill="#FBBC05"/>
<path d="M155.603 22.4586V34.809H160.965C160.965 34.809 162.49 34.6519 162.6 32.9128V17.0877L155.603 22.4586Z" fill="#34A853"/>
<path d="M138.49 34.8194V22.1976L138.479 22.1887L138.49 34.8194Z" fill="#C5221F"/>
<path d="M138.48 12.9379L136.269 11.3399C132.346 9.24192 131.495 13.8611 131.495 13.8611V17.0964L138.48 22.1887V12.9379Z" fill="#C5221F"/>
<path d="M138.479 12.9379V22.1887L138.49 22.1976V12.9469L138.479 12.9379Z" fill="#C5221F"/>
<path d="M131.495 17.0982V32.9233C131.603 34.6642 133.13 34.8195 133.13 34.8195H138.492L138.48 22.1887L131.495 17.0982Z" fill="#4285F4"/>
<g opacity="0.2">
<circle cx="209.26" cy="23.5082" r="19.7949" fill="black"/>
<path fill-rule="evenodd" clip-rule="evenodd" d="M208.476 9.60646C208.95 9.28983 209.569 9.28983 210.044 9.60646L222.769 18.09C223.163 18.3522 223.399 18.7937 223.399 19.2664V27.7499C223.399 28.2227 223.163 28.6642 222.769 28.9264L210.044 37.4099C209.569 37.7265 208.95 37.7265 208.476 37.4099L195.75 28.9264C195.357 28.6642 195.121 28.2227 195.121 27.7499V19.2664C195.121 18.7937 195.357 18.3522 195.75 18.09L208.476 9.60646ZM197.948 21.9084L200.348 23.5082L197.948 25.108V21.9084ZM199.084 27.7499L207.846 33.5915V28.5066L202.897 25.2075L199.084 27.7499ZM205.446 23.5082L209.26 26.0506L213.073 23.5082L209.26 20.9657L205.446 23.5082ZM210.674 18.5097L215.622 21.8089L219.436 19.2664L210.674 13.4248V18.5097ZM207.846 13.4248V18.5097L202.897 21.8089L199.084 19.2664L207.846 13.4248ZM220.571 21.9084L218.171 23.5082L220.571 25.108V21.9084ZM219.436 27.7499L215.622 25.2075L210.674 28.5066V33.5915L219.436 27.7499Z" fill="white"/>
</g>
<g opacity="0.2">
<path fill-rule="evenodd" clip-rule="evenodd" d="M264.57 20.7992C264.365 20.5307 264.035 20.389 263.699 20.4255C263.364 20.462 263.071 20.6714 262.929 20.9777L254.61 37.6211C254.456 37.9296 254.473 38.2958 254.654 38.5891C254.835 38.8824 255.155 39.061 255.5 39.061H267.083C267.462 39.0698 267.81 38.8542 267.972 38.511C270.47 33.3442 268.956 25.4882 264.57 20.7992Z" fill="url(#paint0_linear_2502_9829)"/>
<path fill-rule="evenodd" clip-rule="evenodd" d="M270.671 5.66115C266.455 12.154 265.968 20.3896 269.391 27.3345L274.975 38.511C275.143 38.8481 275.488 39.061 275.864 39.061H287.445C287.79 39.061 288.11 38.8824 288.291 38.5891C288.472 38.2958 288.488 37.9296 288.334 37.6212C288.334 37.6212 272.754 6.43494 272.362 5.65491C272.204 5.33091 271.875 5.1259 271.515 5.12723C271.155 5.12856 270.827 5.336 270.671 5.66115Z" fill="#2684FF"/>
</g>
<g opacity="0.05">
<path d="M353.006 22.4003L335.392 5.36463L333.685 3.71332L320.426 16.5371L314.364 22.4003C313.732 23.0124 313.732 24.004 314.364 24.616L326.478 36.332L333.685 43.3031L346.944 30.4792L347.149 30.2807L353.006 24.616C353.638 24.004 353.638 23.0124 353.006 22.4003ZM333.685 29.361L327.634 23.5082L333.685 17.6554L339.736 23.5082L333.685 29.361Z" fill="#2684FF"/>
<path fill-rule="evenodd" clip-rule="evenodd" d="M333.686 17.6554C329.724 13.823 329.704 7.61574 333.642 3.76035L320.4 16.5633L327.607 23.5343L333.686 17.6554Z" fill="url(#paint1_linear_2502_9829)"/>
<path fill-rule="evenodd" clip-rule="evenodd" d="M339.753 23.4926L333.685 29.361C335.597 31.2094 336.672 33.7172 336.672 36.332C336.672 38.9469 335.597 41.4546 333.685 43.3031L346.96 30.4636L339.753 23.4926Z" fill="url(#paint2_linear_2502_9829)"/>
</g>
<g opacity="0.1">
<path fill-rule="evenodd" clip-rule="evenodd" d="M35.3669 59.7866H9.90021C7.55607 59.7866 5.65576 61.6857 5.65576 64.0283V89.4789C5.65576 91.8215 7.55607 93.7206 9.90021 93.7206H35.3669C37.7027 93.7088 39.5899 91.8131 39.5898 89.4789V64.0283C39.5899 61.694 37.7027 59.7984 35.3669 59.7866ZM12.7254 64.0283H18.381C19.9428 64.0283 21.2089 65.2944 21.2089 66.8562V86.651C21.2089 88.2128 19.9428 89.4789 18.381 89.4789H12.7254C11.1636 89.4789 9.89752 88.2128 9.89752 86.651V66.8562C9.89752 65.2944 11.1636 64.0283 12.7254 64.0283ZM32.5202 64.0283H26.8646C25.3028 64.0283 24.0367 65.2944 24.0367 66.8562V76.7536C24.0367 78.3154 25.3028 79.5814 26.8646 79.5814H32.5202C34.082 79.5814 35.3481 78.3154 35.3481 76.7536V66.8562C35.3481 65.2944 34.082 64.0283 32.5202 64.0283Z" fill="url(#paint3_linear_2502_9829)"/>
</g>
<g opacity="0.5">
<path d="M84.8349 56.9587C73.9168 56.9587 65.04 65.8354 65.04 76.7536C65.04 87.6717 73.9168 96.5484 84.8349 96.5484C95.753 96.5484 104.63 87.6717 104.63 76.7536C104.63 65.8354 95.753 56.9587 84.8349 56.9587Z" fill="#FDDD4C"/>
<path d="M76.1664 81.9146C75.7335 81.2593 76.8222 80.2675 76.3794 79.4348C76.1241 78.9545 75.7069 78.6553 75.2059 78.5925C74.725 78.5321 74.2296 78.7082 73.9139 79.0522C73.4153 79.5947 73.3378 80.3332 73.4342 80.5944C73.4695 80.6903 73.525 80.7164 73.5647 80.722C73.8362 80.7577 73.989 80.0608 74.0828 79.9157C74.3419 79.5156 74.9305 79.3946 75.337 79.6575C76.1077 80.156 75.4394 80.9616 75.497 81.6421C75.5531 82.3047 75.966 82.5709 76.3365 82.5989C76.697 82.6126 76.9491 82.4123 77.0128 82.2661C77.1654 81.9171 76.5225 82.4538 76.1664 81.9146Z" fill="black"/>
<path d="M92.2693 75.8993C92.0672 75.8713 91.8462 75.872 91.6164 75.8993C91.4418 75.6791 91.2855 75.3226 91.1972 74.9064C91.0403 74.1661 91.0567 73.6298 91.4947 73.5601C91.9328 73.4905 92.1445 73.9384 92.3015 74.6787C92.4067 75.1764 92.3865 75.6337 92.2693 75.8993Z" fill="black"/>
<path d="M87.4718 76.3398C87.4891 76.5074 87.4952 76.6771 87.4903 76.8333C87.9141 76.8581 88.2143 77.0595 88.2943 77.1872C88.3352 77.2531 88.3188 77.296 88.3056 77.3159C88.2618 77.3842 88.1677 77.3736 87.9707 77.3515C87.7987 77.3322 87.6134 77.3153 87.4209 77.3241C87.3161 77.6454 87.0054 77.6755 86.7872 77.4379C86.6347 77.4843 86.3352 77.6756 86.2459 77.4677C86.2451 77.3646 86.353 77.2147 86.5483 77.0823C86.415 76.828 86.3256 76.5557 86.2728 76.2738C85.996 76.3237 85.7469 76.4012 85.5516 76.462C85.4599 76.4906 85.0973 76.6544 85.0548 76.4698C85.0264 76.3422 85.2249 76.1319 85.4348 75.9801C85.6693 75.8137 85.9295 75.6953 86.1992 75.627C86.1934 75.2255 86.2958 74.9453 86.5876 74.8989C86.9493 74.8414 87.1735 75.1199 87.3286 75.6356C87.7658 75.7571 88.2024 76.0582 88.3951 76.3696C88.4701 76.4903 88.4846 76.5836 88.4361 76.6328C88.3149 76.7583 87.6437 76.3943 87.4718 76.3398Z" fill="black"/>
<path d="M90.3464 78.1445C90.6237 78.2789 90.9287 78.226 91.0283 78.0263C91.1279 77.8266 90.9836 77.556 90.7063 77.4216C90.429 77.2873 90.1239 77.3401 90.0243 77.5398C89.9247 77.7395 90.0691 78.0102 90.3464 78.1445Z" fill="black"/>
<path d="M91.7115 77.1529C91.7165 76.8474 91.9037 76.6035 92.1287 76.6073C92.3537 76.6116 92.5321 76.8617 92.527 77.1666C92.522 77.4714 92.3348 77.7153 92.1098 77.7115C91.8848 77.7078 91.7064 77.4577 91.7115 77.1529Z" fill="black"/>
<path fill-rule="evenodd" clip-rule="evenodd" d="M97.813 80.8937C97.8111 80.8874 97.8174 80.9093 97.813 80.8937C98.2649 80.8937 98.9745 81.4063 98.9745 82.645C98.9745 83.8774 98.4565 85.2735 98.3342 85.5833C96.468 89.9979 92.014 92.4552 86.7086 92.2997C81.7623 92.1548 77.5441 89.5785 75.6981 85.3786C74.5819 85.3798 73.431 84.8952 72.5562 84.13C71.6342 83.3237 71.0657 82.2804 70.9548 81.1923C70.8684 80.345 70.9737 79.5568 71.2428 78.8693L70.206 78.0021C65.4615 74.0479 80.3008 57.7669 85.0466 61.853C85.0705 61.8736 86.6613 63.4139 86.6651 63.4177C88.9534 62.4586 95.0846 60.6326 95.0916 64.8834C95.0941 66.295 94.1827 67.9411 92.7224 69.4348C94.4101 70.9797 93.965 73.1742 94.2338 75.1876L94.8199 75.3481C95.9374 75.6573 96.7321 76.0698 97.121 76.4729C97.5098 76.8754 97.7027 77.2655 97.7726 77.7228C97.8382 78.0917 97.8294 78.743 97.3365 79.4715C97.514 79.9415 97.676 80.41 97.813 80.8937ZM75.6142 84.2333C75.78 84.237 75.9445 84.2264 76.1058 84.1991C77.8397 83.9073 78.2934 82.0484 78.0079 80.2231C77.6852 78.162 76.2728 77.4353 75.3142 77.3837C75.0476 77.37 74.7999 77.3937 74.5957 77.4341C72.8846 77.7744 71.9184 79.2115 72.1088 81.0779C72.2808 82.7669 74.0115 84.191 75.6142 84.2333ZM71.7388 77.9405C72.313 77.1174 73.2514 76.5221 74.3165 76.3174C75.6722 72.7253 77.9361 69.4156 80.9323 67.138C83.1558 65.3071 85.5539 63.9938 85.5539 63.9938C85.5539 63.9938 84.2626 62.5156 83.8724 62.4067C81.4731 61.7672 76.2911 65.2946 72.9823 69.9556C71.6436 71.8412 69.727 75.1808 70.6434 76.8985C70.7562 77.1112 71.396 77.6581 71.7388 77.9405ZM91.1916 83.4083C91.1953 83.4469 91.1714 83.4867 91.1367 83.501C91.1367 83.501 89.2088 84.3863 86.1464 83.4513C86.2565 84.3692 87.3697 84.7171 88.1474 84.843C91.9422 85.4875 95.4899 83.3455 96.2884 82.8061C96.4255 82.7135 96.2867 82.9516 96.2619 82.9865C95.2844 84.2314 92.6563 85.6729 89.2371 85.6722C87.746 85.6716 86.2554 85.1534 85.7084 84.3565C84.8594 83.1203 85.6661 81.3155 87.081 81.5034C89.4727 81.77 91.9246 81.5697 94.1386 80.5553C96.0691 79.6706 96.7983 78.6976 96.6886 77.9094C96.5185 76.6878 94.7074 76.4968 93.792 76.1998C93.3937 76.0698 93.197 75.9659 93.1523 75.2262C93.1327 74.9033 93.076 73.7766 93.0552 73.3107C93.0187 72.4951 92.9191 71.3796 92.2182 70.9192C92.0355 70.7992 91.8325 70.7413 91.6189 70.7301C91.4485 70.722 91.3475 70.7454 91.2932 70.758C91.281 70.7608 91.2711 70.7631 91.2634 70.7643C90.885 70.8279 90.6531 71.0193 90.3796 71.2451C90.3638 71.2581 90.348 71.2712 90.3319 71.2844C89.4577 72.0036 88.7197 72.1212 87.8985 72.0863C87.6427 72.0756 87.3791 72.0501 87.1011 72.0231C86.8453 71.9984 86.5773 71.9724 86.292 71.9557L85.9434 71.9358C84.5682 71.8661 83.0934 73.0382 82.8483 74.703C82.5744 76.5612 83.613 77.6994 84.2885 78.4397C84.4554 78.6226 84.6002 78.7812 84.6974 78.9203C84.7598 79.0043 84.8323 79.1225 84.8323 79.2351C84.8323 79.3695 84.7441 79.4759 84.6577 79.5667C83.2548 80.9908 82.806 83.2534 83.3348 85.1391C83.401 85.3742 83.4848 85.5995 83.5838 85.8147C84.8241 88.6758 88.6724 90.0084 92.4313 88.7965C95.0656 87.9471 97.3932 85.8946 97.8672 83.0631C97.98 82.3252 97.8142 82.0403 97.5886 81.9028C97.3497 81.7578 97.0636 81.8082 97.0636 81.8082C97.0636 81.8082 96.9331 80.9267 96.5638 80.1254C95.4678 80.9789 94.0573 81.5787 92.9834 81.8829C91.2627 82.3701 89.404 82.5599 87.626 82.3301C86.9048 82.2369 86.4203 82.1743 86.2126 82.8403C88.5842 83.6976 91.0945 83.3306 91.0945 83.3306C91.143 83.3256 91.1865 83.3604 91.1916 83.4083ZM84.3489 66.7722C83.0518 67.4273 81.6035 68.5937 80.4275 69.9357C80.3859 69.9836 80.4476 70.0495 80.4987 70.0128C81.5147 69.2831 82.9075 68.6049 84.7321 68.1657C86.776 67.6736 88.7437 67.8802 89.9455 68.152C90.006 68.1657 90.0439 68.0631 89.9903 68.0332C89.1962 67.5934 87.9773 67.2947 87.1126 67.2885C87.0703 67.2879 87.0464 67.2394 87.0716 67.2058C87.221 67.0073 87.4258 66.8114 87.613 66.6695C87.6546 66.6372 87.6294 66.5706 87.5764 66.5737C86.5007 66.6389 84.0439 67.7592 84.0527 67.7184C84.1157 67.4198 84.3142 67.0254 84.417 66.8412C84.4415 66.7977 84.3937 66.7498 84.3489 66.7722Z" fill="black"/>
</g>
<circle cx="147.047" cy="76.7536" r="19.7949" fill="#0F287F"/>
<path fill-rule="evenodd" clip-rule="evenodd" d="M139.978 65.4422L132.908 69.684L139.978 73.9257L132.908 78.1675L139.978 82.4092L147.047 78.1675L154.117 82.4092L161.187 78.1675L154.117 73.9257L161.187 69.684L154.117 65.4422L147.047 69.684L139.978 65.4422ZM147.047 69.684L154.117 73.9257L147.047 78.1675L139.978 73.9257L147.047 69.684Z" fill="#DAF8FE"/>
<path d="M139.978 85.2371L147.047 80.9953L154.117 85.2371L147.047 89.4788L139.978 85.2371Z" fill="#DAF8FE"/>
<circle cx="209.26" cy="76.7536" r="19.7949" fill="url(#paint4_linear_2502_9829)"/>
<path d="M216.632 82.8073L217.511 77.2203H212.01V73.5963C212.01 72.0674 212.777 70.5762 215.241 70.5762H217.743V65.8197C217.743 65.8197 215.473 65.4422 213.304 65.4422C208.772 65.4422 205.812 68.1187 205.812 72.9621V77.2203H200.776V82.8073H205.812V96.3144C206.823 96.4692 207.858 96.5484 208.911 96.5484C209.965 96.5484 210.999 96.4692 212.01 96.3144V82.8073H216.632Z" fill="white"/>
<path d="M265.518 93.7206C260.944 93.7206 256.68 92.3902 253.091 90.0948C256.138 90.2919 261.516 89.8197 264.86 86.6295C259.829 86.3986 257.56 82.5397 257.264 80.8906C257.691 81.0555 259.73 81.2534 260.881 80.7917C255.093 79.3405 254.205 74.2613 254.403 72.7111C255.488 73.4697 257.329 73.7336 258.053 73.6676C252.66 69.8087 254.6 64.0039 255.554 62.7506C259.424 68.1126 265.224 71.1241 272.4 71.2916C272.265 70.6982 272.194 70.0804 272.194 69.4459C272.194 64.8921 275.874 61.2004 280.415 61.2004C282.787 61.2004 284.925 62.2082 286.425 63.8202C288.011 63.4487 290.397 62.5791 291.563 61.8271C290.975 63.9379 289.145 65.6988 288.038 66.3515C288.029 66.3292 288.047 66.3737 288.038 66.3515C289.01 66.2044 291.642 65.6986 292.681 64.9934C292.167 66.1792 290.226 68.1509 288.634 69.2547C288.93 82.3217 278.933 93.7206 265.518 93.7206Z" fill="#47ACDF"/>
<g opacity="0.4">
<path d="M348.532 75.3394C350.484 75.3394 352.066 73.7569 352.066 71.8049C352.066 69.8528 350.484 68.2704 348.532 68.2704C346.579 68.2704 344.997 69.8529 344.997 71.8052V75.3394H348.532ZM338.634 75.3394C340.586 75.3394 342.169 73.7568 342.169 71.8046V61.9077C342.169 59.9555 340.586 58.3729 338.634 58.3729C336.682 58.3729 335.099 59.9555 335.099 61.9077V71.8046C335.099 73.7568 336.682 75.3394 338.634 75.3394Z" fill="#2EB67D"/>
<path d="M318.839 78.1678C316.887 78.1678 315.304 79.7502 315.304 81.7023C315.304 83.6543 316.887 85.2368 318.839 85.2368C320.791 85.2368 322.374 83.6542 322.374 81.702V78.1678H318.839ZM328.737 78.1678C326.784 78.1678 325.202 79.7504 325.202 81.7026V91.5994C325.202 93.5516 326.784 95.1342 328.737 95.1342C330.689 95.1342 332.271 93.5516 332.271 91.5994V81.7026C332.271 79.7504 330.689 78.1678 328.737 78.1678Z" fill="#E01E5A"/>
<path d="M335.099 91.6C335.099 93.5521 336.681 95.1345 338.633 95.1345C340.586 95.1345 342.168 93.5519 342.168 91.5999C342.168 89.6477 340.585 88.0649 338.633 88.0649L335.099 88.0649L335.099 91.6ZM335.099 81.7023C335.099 83.6545 336.682 85.2371 338.634 85.2371L348.531 85.2371C350.483 85.2371 352.065 83.6545 352.065 81.7023C352.065 79.7501 350.483 78.1675 348.531 78.1675L338.634 78.1675C336.682 78.1675 335.099 79.7501 335.099 81.7023Z" fill="#ECB22E"/>
<path d="M332.271 61.9071C332.271 59.9551 330.689 58.3726 328.737 58.3726C326.785 58.3726 325.202 59.9552 325.202 61.9073C325.202 63.8595 326.785 65.4422 328.737 65.4422L332.271 65.4422L332.271 61.9071ZM332.271 71.8049C332.271 69.8526 330.689 68.2701 328.736 68.2701L318.839 68.2701C316.887 68.2701 315.305 69.8526 315.305 71.8049C315.305 73.7571 316.887 75.3397 318.839 75.3397L328.736 75.3397C330.689 75.3397 332.271 73.7571 332.271 71.8049Z" fill="#36C5F0"/>
</g>
<g opacity="0.1">
<path d="M39.1579 139.896C39.4241 139.418 39.5896 138.88 39.5896 138.396V121.602C39.5896 121.118 39.4244 120.58 39.158 120.102L22.6226 129.999L39.1579 139.896Z" fill="#00599C"/>
<path d="M24.0916 149.431L38.1199 141.034C38.524 140.792 38.8913 140.375 39.1576 139.896L22.6222 129.999L6.08691 139.897C6.35317 140.375 6.72057 140.793 7.12456 141.034L21.1529 149.431C21.961 149.915 23.2835 149.915 24.0916 149.431Z" fill="#004482"/>
<path d="M39.1582 120.102C38.8919 119.623 38.5245 119.206 38.1205 118.964L24.0922 110.567C23.2841 110.083 21.9615 110.083 21.1534 110.567L7.12513 118.964C6.31692 119.447 5.65576 120.635 5.65576 121.602V138.396C5.65576 138.88 5.82111 139.418 6.08748 139.896L22.6228 129.999L39.1582 120.102Z" fill="#659AD2"/>
<path d="M22.6773 141.31C16.4102 141.31 11.3115 136.236 11.3115 129.999C11.3115 123.762 16.4102 118.688 22.6773 118.688C26.6466 118.688 30.3534 120.774 32.4058 124.148L27.5384 127.067C26.51 125.384 24.6588 124.343 22.6773 124.343C19.5437 124.343 16.9944 126.88 16.9944 129.999C16.9944 133.118 19.5437 135.655 22.6773 135.655C24.6535 135.655 26.5 134.62 27.5301 132.945L32.4079 135.847C30.3558 139.223 26.6479 141.31 22.6773 141.31Z" fill="white"/>
<path d="M32.5201 129.285H31.1061V127.878H29.6923V129.285H28.2783V130.691H29.6923V132.098H31.1061V130.691H32.5201V129.285Z" fill="white"/>
<path d="M38.1758 129.292H36.7618V127.878H35.3481V129.292H33.9341V130.706H35.3481V132.12H36.7618V130.706H38.1758V129.292Z" fill="white"/>
</g>
<g opacity="0.5">
<path fill-rule="evenodd" clip-rule="evenodd" d="M84.835 129.999C84.835 126.876 87.3671 124.343 90.4906 124.343C93.6142 124.343 96.1463 126.876 96.1463 129.999C96.1463 133.123 93.6142 135.655 90.4906 135.655C87.3671 135.655 84.835 133.123 84.835 129.999Z" fill="#1ABCFE"/>
<path fill-rule="evenodd" clip-rule="evenodd" d="M73.5239 141.31C73.5239 138.187 76.0561 135.655 79.1796 135.655H84.8353V141.31C84.8353 144.434 82.3031 146.966 79.1796 146.966C76.0561 146.966 73.5239 144.434 73.5239 141.31Z" fill="#0ACF83"/>
<path fill-rule="evenodd" clip-rule="evenodd" d="M84.835 113.032V124.343H90.4906C93.6142 124.343 96.1463 121.811 96.1463 118.688C96.1463 115.564 93.6142 113.032 90.4906 113.032H84.835Z" fill="#FF7262"/>
<path fill-rule="evenodd" clip-rule="evenodd" d="M73.5239 118.688C73.5239 121.811 76.0561 124.343 79.1796 124.343H84.8353V113.032H79.1796C76.0561 113.032 73.5239 115.564 73.5239 118.688Z" fill="#F24E1E"/>
<path fill-rule="evenodd" clip-rule="evenodd" d="M73.5239 129.999C73.5239 133.123 76.0561 135.655 79.1796 135.655H84.8353V124.343H79.1796C76.0561 124.343 73.5239 126.876 73.5239 129.999Z" fill="#A259FF"/>
</g>
<path fill-rule="evenodd" clip-rule="evenodd" d="M147.047 149.794C157.98 149.794 166.842 140.931 166.842 129.999C166.842 119.067 157.98 110.204 147.047 110.204C136.115 110.204 127.252 119.067 127.252 129.999C127.252 140.931 136.115 149.794 147.047 149.794Z" fill="white"/>
<path fill-rule="evenodd" clip-rule="evenodd" d="M137.15 136.126H147.047V145.552L137.15 136.126Z" fill="#0055FF"/>
<path d="M147.047 126.7H137.15V136.126H156.945L147.047 126.7Z" fill="#00AAFF"/>
<path d="M137.15 117.274L147.047 126.7H156.945V117.274H137.15Z" fill="#88DDFF"/>
<path d="M189.465 123.778C189.465 119.027 189.465 116.651 190.389 114.836C191.203 113.24 192.501 111.942 194.097 111.129C195.912 110.204 198.287 110.204 203.038 110.204H215.481C220.232 110.204 222.608 110.204 224.423 111.129C226.019 111.942 227.317 113.24 228.13 114.836C229.055 116.651 229.055 119.027 229.055 123.778V136.22C229.055 140.971 229.055 143.347 228.13 145.162C227.317 146.758 226.019 148.056 224.423 148.869C222.608 149.794 220.232 149.794 215.481 149.794H203.038C198.287 149.794 195.912 149.794 194.097 148.869C192.501 148.056 191.203 146.758 190.389 145.162C189.465 143.347 189.465 140.971 189.465 136.22V123.778Z" fill="white"/>
<path d="M220.057 120.582C218.043 119.697 215.89 119.054 213.64 118.688C213.363 119.157 213.04 119.789 212.817 120.291C210.425 119.953 208.054 119.953 205.705 120.291C205.483 119.789 205.152 119.157 204.873 118.688C202.62 119.054 200.465 119.7 198.451 120.587C194.39 126.353 193.289 131.976 193.839 137.519C196.533 139.409 199.143 140.557 201.71 141.308C202.344 140.489 202.909 139.618 203.396 138.7C202.468 138.369 201.58 137.96 200.741 137.486C200.964 137.331 201.181 137.169 201.392 137.002C206.51 139.251 212.071 139.251 217.128 137.002C217.341 137.169 217.559 137.331 217.779 137.486C216.938 137.963 216.047 138.371 215.12 138.702C215.607 139.618 216.169 140.491 216.805 141.31C219.374 140.559 221.987 139.411 224.681 137.519C225.327 131.093 223.578 125.522 220.057 120.582ZM204.093 134.11C202.556 134.11 201.296 132.762 201.296 131.121C201.296 129.48 202.529 128.13 204.093 128.13C205.656 128.13 206.916 129.478 206.889 131.121C206.892 132.762 205.656 134.11 204.093 134.11ZM214.427 134.11C212.891 134.11 211.631 132.762 211.631 131.121C211.631 129.48 212.864 128.13 214.427 128.13C215.991 128.13 217.251 129.478 217.224 131.121C217.224 132.762 215.991 134.11 214.427 134.11Z" fill="#5865F2"/>
<path d="M260.799 135.361C261.02 133.532 261.77 132.508 263.184 131.458C265.207 130.036 267.734 130.84 267.734 130.84V126.068C268.349 126.052 268.963 126.089 269.571 126.177V132.318C269.571 132.318 267.044 131.514 265.021 132.936C263.608 133.986 262.856 135.011 262.636 136.84C262.629 137.834 262.816 139.132 263.674 140.255C263.462 140.146 263.245 140.022 263.025 139.883C261.134 138.613 260.789 136.708 260.799 135.361ZM280.006 117.244C278.614 115.719 278.088 114.179 277.897 113.098H279.648C279.648 113.098 279.299 115.934 281.843 118.723L281.878 118.76C281.193 118.329 280.564 117.82 280.006 117.244ZM288.439 121.568V127.585C288.439 127.585 286.205 127.498 284.552 127.077C282.244 126.489 280.76 125.587 280.76 125.587C280.76 125.587 279.735 124.943 279.652 124.899V137.326C279.652 138.017 279.462 139.745 278.885 141.187C278.131 143.072 276.967 144.31 276.753 144.563C276.753 144.563 275.337 146.235 272.84 147.362C270.589 148.378 268.613 148.352 268.022 148.378C268.022 148.378 264.605 148.513 261.531 146.516C260.867 146.075 260.246 145.576 259.678 145.026L259.693 145.037C262.768 147.035 266.184 146.899 266.184 146.899C266.775 146.874 268.751 146.899 271.002 145.883C273.497 144.757 274.914 143.084 274.914 143.084C275.126 142.831 276.295 141.593 277.046 139.707C277.623 138.267 277.814 136.538 277.814 135.846V123.421C277.897 123.466 278.921 124.11 278.921 124.11C278.921 124.11 280.405 125.013 282.714 125.6C284.368 126.021 286.601 126.108 286.601 126.108V121.393C287.365 121.564 288.017 121.61 288.439 121.568Z" fill="#EE1D52"/>
<path d="M286.602 121.393V126.107C286.602 126.107 284.369 126.019 282.714 125.599C280.406 125.01 278.921 124.108 278.921 124.108C278.921 124.108 277.897 123.465 277.814 123.419V135.848C277.814 136.539 277.625 138.268 277.047 139.709C276.293 141.595 275.129 142.832 274.915 143.085C274.915 143.085 273.499 144.758 271.002 145.885C268.752 146.901 266.776 146.875 266.184 146.901C266.184 146.901 262.769 147.036 259.694 145.038L259.678 145.027C259.354 144.713 259.048 144.381 258.763 144.033C257.782 142.837 257.18 141.422 257.029 141.018C257.029 141.017 257.029 141.015 257.029 141.013C256.786 140.312 256.275 138.627 256.345 136.995C256.468 134.117 257.481 132.35 257.749 131.907C258.458 130.7 259.38 129.62 260.475 128.715C261.441 127.934 262.535 127.313 263.714 126.877C264.988 126.364 266.353 126.09 267.734 126.068V130.84C267.734 130.84 265.207 130.039 263.185 131.458C261.771 132.508 261.02 133.532 260.799 135.361C260.79 136.708 261.135 138.613 263.024 139.884C263.245 140.023 263.461 140.147 263.673 140.256C264.003 140.685 264.405 141.059 264.862 141.362C266.708 142.531 268.255 142.612 270.233 141.854C271.552 141.346 272.544 140.203 273.005 138.936C273.294 138.145 273.29 137.348 273.29 136.525V113.098H277.893C278.084 114.179 278.61 115.719 280.002 117.244C280.56 117.82 281.189 118.329 281.874 118.76C282.077 118.97 283.113 120.006 284.442 120.642C285.13 120.971 285.854 121.223 286.602 121.393Z" fill="black"/>
<path d="M255.197 139.553V139.557L255.311 139.866C255.298 139.83 255.256 139.721 255.197 139.553Z" fill="#69C9D0"/>
<path d="M263.714 126.877C262.535 127.313 261.441 127.934 260.475 128.715C259.38 129.622 258.458 130.704 257.75 131.914C257.482 132.355 256.469 134.123 256.346 137.002C256.276 138.634 256.787 140.318 257.03 141.02C257.03 141.021 257.03 141.023 257.03 141.025C257.184 141.425 257.783 142.84 258.764 144.04C259.049 144.388 259.355 144.72 259.679 145.034C258.639 144.344 257.711 143.511 256.927 142.56C255.954 141.374 255.354 139.974 255.197 139.561C255.197 139.558 255.197 139.555 255.197 139.552V139.547C254.953 138.846 254.441 137.161 254.512 135.527C254.636 132.648 255.648 130.881 255.916 130.439C256.624 129.229 257.546 128.147 258.641 127.24C259.607 126.459 260.702 125.838 261.88 125.402C262.616 125.109 263.382 124.894 264.165 124.758C265.346 124.561 266.552 124.544 267.738 124.708V126.068C266.355 126.09 264.989 126.364 263.714 126.877Z" fill="#69C9D0"/>
<path d="M277.897 113.098H273.294V136.526C273.294 137.349 273.294 138.143 273.008 138.937C272.543 140.203 271.555 141.346 270.236 141.854C268.258 142.615 266.711 142.531 264.866 141.362C264.408 141.06 264.005 140.687 263.674 140.259C265.246 141.063 266.653 141.049 268.396 140.379C269.713 139.871 270.704 138.728 271.167 137.461C271.457 136.67 271.453 135.873 271.453 135.05V111.618H277.81C277.81 111.618 277.738 112.2 277.897 113.098ZM286.602 120.089V121.393C285.856 121.222 285.132 120.97 284.446 120.642C283.116 120.006 282.081 118.97 281.878 118.76C282.113 118.908 282.357 119.043 282.608 119.163C284.225 119.937 285.817 120.168 286.602 120.089Z" fill="#69C9D0"/>
<g opacity="0.4">
<circle cx="333.685" cy="129.999" r="19.7949" fill="#028CB0"/>
<path d="M320.19 129.999C320.19 135.347 323.301 139.953 327.799 142.142L321.363 124.508C320.59 126.235 320.19 128.106 320.19 129.999ZM333.685 143.494C335.253 143.494 336.76 143.219 338.172 142.729L338.076 142.549L333.925 131.183L329.881 142.944C331.077 143.303 332.357 143.494 333.685 143.494ZM335.54 123.67L340.421 138.182L341.773 133.684C342.347 131.818 342.79 130.478 342.79 129.317C342.79 127.642 342.192 126.494 341.689 125.608C340.995 124.484 340.361 123.539 340.361 122.438C340.361 121.194 341.295 120.045 342.634 120.045H342.802C340.315 117.762 337.061 116.498 333.685 116.504C331.45 116.503 329.25 117.059 327.283 118.119C325.316 119.18 323.643 120.714 322.415 122.581L323.277 122.605C324.689 122.605 326.866 122.426 326.866 122.426C327.608 122.39 327.692 123.455 326.962 123.539C326.962 123.539 326.232 123.634 325.406 123.67L330.336 138.29L333.291 129.437L331.185 123.67C330.713 123.644 330.243 123.604 329.773 123.55C329.043 123.503 329.127 122.39 329.857 122.426C329.857 122.426 332.082 122.605 333.41 122.605C334.822 122.605 336.999 122.426 336.999 122.426C337.729 122.39 337.825 123.455 337.095 123.539C337.095 123.539 336.365 123.622 335.54 123.67ZM340.469 141.664C342.511 140.477 344.205 138.775 345.383 136.728C346.56 134.681 347.18 132.361 347.181 129.999C347.181 127.654 346.583 125.453 345.53 123.527C345.744 125.646 345.423 127.785 344.597 129.748L340.469 141.664ZM333.685 145.552C329.56 145.552 325.605 143.914 322.688 140.997C319.771 138.08 318.132 134.124 318.132 129.999C318.132 125.874 319.771 121.918 322.688 119.001C325.605 116.085 329.56 114.446 333.685 114.446C337.81 114.446 341.766 116.085 344.683 119.001C347.6 121.918 349.239 125.874 349.239 129.999C349.239 134.124 347.6 138.08 344.683 140.997C341.766 143.914 337.81 145.552 333.685 145.552Z" fill="white"/>
</g>
<g opacity="0.04">
<path d="M26.4106 183.21C26.4106 181.182 24.7149 179.538 22.6229 179.538C20.531 179.538 18.8351 181.182 18.8351 183.21C18.8351 185.239 20.531 186.883 22.6229 186.883C24.7149 186.883 26.4106 185.239 26.4106 183.21Z" fill="#53C1DE"/>
<path fill-rule="evenodd" clip-rule="evenodd" d="M34.9245 176.392C35.7244 173.241 36.7299 167.396 33.1854 165.415C29.6576 163.442 25.0667 167.222 22.6426 169.491C20.2255 167.245 15.5057 163.481 11.9642 165.469C8.43772 167.448 9.52521 173.195 10.3428 176.367C7.05321 177.273 1.41406 179.224 1.41406 183.21C1.41406 187.186 7.04735 189.308 10.3175 190.213C9.49684 193.402 8.46381 199.067 11.9948 201.042C15.5494 203.03 20.2546 199.355 22.7011 197.062C25.1409 199.344 29.6877 203.042 33.2162 201.062C36.7559 199.075 35.8339 193.309 35.0163 190.12C38.1862 189.213 43.8316 187.136 43.8316 183.21C43.8316 179.262 38.1623 177.295 34.9245 176.392ZM34.5227 188.429C33.9858 186.781 33.2612 185.029 32.3748 183.219C33.2209 181.452 33.9173 179.722 34.4392 178.085C36.8128 178.752 42.0197 180.277 42.0197 183.21C42.0197 186.171 37.0231 187.711 34.5227 188.429ZM32.3081 199.541C29.6756 201.019 25.7648 197.482 23.963 195.801C25.1583 194.534 26.3528 193.06 27.5185 191.424C29.5692 191.247 31.5066 190.959 33.2635 190.565C33.839 192.821 34.9526 198.057 32.3081 199.541ZM12.9002 199.52C10.2672 198.048 11.4707 192.993 12.0744 190.644C13.8118 191.017 15.735 191.285 17.7906 191.446C18.9641 193.047 20.1931 194.519 21.4317 195.808C19.9014 197.243 15.5455 200.999 12.9002 199.52ZM3.22598 183.21C3.22598 180.238 8.40175 178.725 10.8294 178.059C11.3603 179.733 12.0566 181.483 12.8968 183.253C12.0457 185.049 11.3395 186.827 10.8037 188.521C8.48888 187.879 3.22598 186.184 3.22598 183.21ZM12.872 166.989C15.5158 165.506 19.6179 169.119 21.3728 170.746C20.1406 172.029 18.9228 173.489 17.7595 175.081C15.7645 175.26 13.8548 175.548 12.0992 175.934C11.4405 173.376 10.2311 168.471 12.872 166.989ZM28.8148 176.991C30.1683 177.156 31.4649 177.377 32.6825 177.646C32.317 178.782 31.8614 179.97 31.3249 181.188C30.547 179.757 29.7121 178.355 28.8148 176.991ZM22.6431 172.001C23.4789 172.879 24.3159 173.859 25.1393 174.923C23.4691 174.846 21.7961 174.846 20.1259 174.922C20.95 173.868 21.7942 172.889 22.6431 172.001ZM13.9364 181.186C13.4088 179.973 12.9573 178.78 12.5886 177.628C13.7988 177.365 15.0895 177.15 16.4341 176.988C15.5343 178.348 14.7008 179.75 13.9364 181.186ZM16.4728 189.559C15.0836 189.408 13.7735 189.205 12.5636 188.949C12.9381 187.777 13.3996 186.558 13.9385 185.318C14.7134 186.77 15.5596 188.185 16.4728 189.559ZM22.6933 194.544C21.8344 193.645 20.9778 192.651 20.1411 191.582C21.8209 191.646 23.5039 191.647 25.1834 191.574C24.3574 192.662 23.5234 193.658 22.6933 194.544ZM31.3421 185.255C31.909 186.508 32.387 187.72 32.7666 188.873C31.5366 189.145 30.2088 189.364 28.8097 189.527C29.7137 188.138 30.5618 186.714 31.3421 185.255ZM26.5073 189.74C23.938 189.918 21.3525 189.916 18.7824 189.755C17.3219 187.686 16.0219 185.511 14.8997 183.253C16.0164 180.999 17.307 178.828 18.7606 176.763C21.3327 176.574 23.9206 176.574 26.4926 176.764C27.9336 178.829 29.2223 180.994 30.365 183.228C29.2359 185.48 27.9385 187.656 26.5073 189.74ZM32.2804 166.937C34.9248 168.416 33.7477 173.668 33.17 175.952C31.4103 175.559 29.4992 175.265 27.4984 175.083C26.3329 173.474 25.1252 172.011 23.9129 170.745C25.6904 169.083 29.6615 165.473 32.2804 166.937Z" fill="#53C1DE"/>
</g>
<g opacity="0.2">
<path d="M93.0174 191.1C94.5827 190.941 95.7702 189.614 95.7162 188.022C95.6623 186.43 94.3128 185.156 92.6934 185.156H92.5856C90.9121 185.21 89.6167 186.589 89.6707 188.234C89.7247 189.03 90.0485 189.72 90.5343 190.198C88.6991 193.754 85.8922 196.354 81.6819 198.53C78.8211 200.016 75.8523 200.547 72.8836 200.175C70.4545 199.857 68.5653 198.795 67.3776 197.044C65.6504 194.444 65.4885 191.631 66.946 188.818C67.9716 186.802 69.5908 185.316 70.6164 184.573C70.4005 183.883 70.0766 182.715 69.9147 181.866C62.0878 187.438 62.8976 194.974 65.2726 198.53C67.0538 201.183 70.6704 202.829 74.6648 202.829C75.7443 202.829 76.8238 202.722 77.9035 202.457C84.8127 201.13 90.0486 197.097 93.0174 191.1ZM102.518 184.52C98.4152 179.796 92.3697 177.196 85.4604 177.196H84.5968C84.111 176.241 83.0854 175.604 81.9519 175.604H81.8438C80.1706 175.657 78.8753 177.037 78.9291 178.682C78.9831 180.274 80.3325 181.548 81.9519 181.548H82.0597C83.2472 181.495 84.2729 180.752 84.7047 179.743H85.6763C89.7787 179.743 93.6651 180.911 97.1738 183.193C99.8726 184.944 101.816 187.226 102.895 189.986C103.813 192.215 103.759 194.39 102.787 196.248C101.276 199.061 98.7391 200.6 95.3924 200.6C93.2333 200.6 91.1822 199.963 90.1025 199.485C89.5088 200.016 88.4292 200.865 87.6734 201.396C89.9946 202.457 92.3697 203.041 94.6367 203.041C99.8186 203.041 103.651 200.228 105.109 197.416C106.674 194.337 106.566 189.03 102.518 184.52ZM75.0966 192.002C75.1506 193.594 76.5 194.868 78.1194 194.868H78.2274C79.9007 194.815 81.1961 193.435 81.1421 191.79C81.0883 190.198 79.7387 188.924 78.1194 188.924H78.0115C77.9035 188.924 77.7414 188.924 77.6337 188.977C75.4205 185.369 74.5029 181.442 74.8269 177.196C75.0426 174.012 76.1223 171.252 78.0115 168.97C79.5768 167.007 82.5996 166.051 84.6508 165.998C90.3724 165.892 92.8013 172.897 92.9634 175.71C93.6651 175.869 94.8526 176.241 95.6623 176.506C95.0145 167.909 89.6167 163.451 84.4349 163.451C79.5768 163.451 75.0966 166.901 73.3152 171.995C70.8323 178.788 72.4516 185.316 75.4744 190.463C75.2046 190.835 75.0426 191.419 75.0966 192.002V192.002Z" fill="#764ABC"/>
</g>
<circle cx="147.047" cy="183.244" r="19.7949" fill="url(#paint5_linear_2502_9829)"/>
<path d="M156.926 175.056C157.102 173.917 156.019 173.018 155.007 173.463L134.838 182.318C134.112 182.637 134.165 183.737 134.918 183.977L139.077 185.301C139.871 185.554 140.731 185.423 141.424 184.944L150.801 178.466C151.084 178.27 151.392 178.672 151.151 178.922L144.401 185.881C143.746 186.556 143.876 187.7 144.664 188.194L152.221 192.933C153.069 193.465 154.159 192.931 154.318 191.906L156.926 175.056Z" fill="white"/>
<path d="M210.674 167.691L210.674 189.91L229.055 167.691H210.674Z" fill="#07363D"/>
<path d="M198.655 177.589C203.684 177.589 207.846 172.521 207.846 167.691H189.465C189.465 172.521 193.627 177.589 198.655 177.589Z" fill="#07363D"/>
<path d="M210.674 198.797C210.674 193.968 214.836 188.9 219.864 188.9C224.892 188.9 229.055 193.968 229.055 198.797H210.674Z" fill="#07363D"/>
<path d="M207.846 198.798V176.579L189.465 198.798H207.846Z" fill="#07363D"/>
<g opacity="0.2">
<path d="M251.677 177.526C251.677 172.599 251.677 170.135 252.636 168.253C253.48 166.598 254.825 165.252 256.481 164.408C258.363 163.45 260.826 163.45 265.754 163.45H277.191C282.118 163.45 284.581 163.45 286.463 164.408C288.119 165.252 289.465 166.598 290.308 168.253C291.267 170.135 291.267 172.599 291.267 177.526V188.963C291.267 193.89 291.267 196.354 290.308 198.236C289.465 199.891 288.119 201.237 286.463 202.08C284.581 203.039 282.118 203.039 277.191 203.039H265.754C260.826 203.039 258.363 203.039 256.481 202.08C254.825 201.237 253.48 199.891 252.636 198.236C251.677 196.354 251.677 193.89 251.677 188.963V177.526Z" fill="white"/>
<path d="M255.919 193.934C255.919 195.059 256.838 195.97 257.971 195.97H258C256.851 195.97 255.919 195.059 255.919 193.934Z" fill="#FBBC05"/>
<path d="M273.547 178.154V183.47L280.714 177.689V172.555C280.714 171.43 279.795 170.519 278.662 170.519H263.136L263.122 178.154H273.547Z" fill="#FBBC05"/>
<path d="M273.547 188.788H263.105L263.093 195.97H278.662C279.796 195.97 280.714 195.059 280.714 193.934V189.299L273.547 183.472V188.788Z" fill="#34A853"/>
<path d="M263.136 170.519L255.919 178.154H263.124L263.136 170.519Z" fill="#EA4335"/>
<path d="M255.919 188.788V193.934C255.919 195.059 256.851 195.97 258 195.97H263.093L263.105 188.788H255.919Z" fill="#1967D2"/>
<path d="M263.124 178.154H255.919V188.787H263.105L263.124 178.154Z" fill="#4285F4"/>
<path d="M287.015 192.124V174.648C286.611 172.328 284.068 174.987 284.068 174.987L280.716 177.69V189.297L285.514 193.198C287.246 193.425 287.015 192.124 287.015 192.124Z" fill="#34A853"/>
<path d="M273.547 183.47L280.715 189.298V177.691L273.547 183.47Z" fill="#188038"/>
</g>
<g opacity="0.05">
<path d="M346.723 167.691C343.635 167.691 341.061 169.795 340.271 172.944C338.848 168.213 335.205 167.695 333.686 167.695C332.166 167.695 328.525 168.213 327.099 172.943C326.309 169.797 323.735 167.695 320.647 167.695C316.858 167.695 313.89 170.47 313.89 174.013C313.89 175.58 314.268 176.831 314.724 178.188L319.869 193.095C321.592 198.039 325.101 198.777 327.04 198.777C330.08 198.777 332.45 197.181 333.685 194.353C334.922 197.194 337.292 198.798 340.331 198.798C342.267 198.798 345.773 198.058 347.504 193.096C349.304 187.891 351.169 182.703 352.892 177.472C353.168 176.637 353.48 175.691 353.48 174.531C353.48 170.568 350.638 167.691 346.723 167.691ZM349.162 176.862L343.989 191.82C343.357 193.629 342.307 194.976 340.331 194.976C338.479 194.976 337.386 193.919 336.84 192.108L333.727 182.153H333.642L330.531 192.108C329.984 193.92 328.89 194.956 327.039 194.956C325.063 194.956 324.011 193.62 323.381 191.81L318.25 176.943C317.829 175.693 317.619 174.919 317.619 174.013C317.619 172.634 318.882 171.516 320.647 171.516C322.119 171.516 323.171 172.51 323.507 173.976L326.998 185.834H327.082L330.614 174.237C331.078 172.556 331.919 171.516 333.686 171.516C335.452 171.516 336.293 172.555 336.755 174.235L340.288 185.834H340.372L343.864 173.976C344.2 172.51 345.251 171.512 346.723 171.512C348.489 171.512 349.751 172.634 349.751 174.531C349.751 175.22 349.455 175.913 349.162 176.862Z" fill="#3192E7"/>
</g>
<defs>
<linearGradient id="paint0_linear_2502_9829" x1="269.129" y1="23.3677" x2="257.462" y2="35.8925" gradientUnits="userSpaceOnUse">
<stop stop-color="#0052CC"/>
<stop offset="0.923" stop-color="#2684FF"/>
</linearGradient>
<linearGradient id="paint1_linear_2502_9829" x1="332.605" y1="11.7347" x2="322.511" y2="16.1421" gradientUnits="userSpaceOnUse">
<stop offset="0.18" stop-color="#0052CC"/>
<stop offset="1" stop-color="#2684FF"/>
</linearGradient>
<linearGradient id="paint2_linear_2502_9829" x1="334.841" y1="35.2138" x2="344.917" y2="30.8377" gradientUnits="userSpaceOnUse">
<stop offset="0.18" stop-color="#0052CC"/>
<stop offset="1" stop-color="#2684FF"/>
</linearGradient>
<linearGradient id="paint3_linear_2502_9829" x1="22.6336" y1="93.7206" x2="22.6336" y2="59.7866" gradientUnits="userSpaceOnUse">
<stop stop-color="#0052CC"/>
<stop offset="0.51698" stop-color="#217EF8"/>
<stop offset="1" stop-color="#2684FF"/>
</linearGradient>
<linearGradient id="paint4_linear_2502_9829" x1="209.26" y1="56.9587" x2="209.26" y2="96.431" gradientUnits="userSpaceOnUse">
<stop stop-color="#18ACFE"/>
<stop offset="1" stop-color="#0163E0"/>
</linearGradient>
<linearGradient id="paint5_linear_2502_9829" x1="147.047" y1="163.45" x2="147.047" y2="203.039" gradientUnits="userSpaceOnUse">
<stop stop-color="#37BBFE"/>
<stop offset="1" stop-color="#007DBB"/>
</linearGradient>
</defs>
</svg>
